Coordinates
nRows=287
nColumns=2
inDegrees=yes
endheader
time	ankle_angle_r	
3.22681	 -0.457764	
3.26008	 -0.420765	
3.29335	 -0.442505	
3.32661	 -0.457764	
3.35988	 -0.437826	
3.39315	 -0.406280	
3.42641	 -0.448019	
3.45968	 -0.463084	
3.49294	 -0.422180	
3.52621	 -0.473022	
3.55948	 -0.452505	
3.59274	 -0.431793	
3.62601	 -0.483927	
3.65927	 -0.477183	
3.69254	 -0.457764	
3.72581	 -0.501571	
3.75907	 -0.482442	
3.79234	 -0.494217	
3.8256	 -0.518799	
3.85887	 -0.518799	
3.89214	 -0.534058	
3.9254	 -0.540380	
3.95867	 -0.551736	
3.99194	 -0.486055	
4.0252	 -0.464376	
4.05847	 -0.518799	
4.09173	 -0.488281	
4.125	 -0.542414	
4.15827	 -0.527058	
4.19153	 -0.503540	
4.2248	 -0.518799	
4.25806	 -0.510830	
4.29133	 -0.472536	
4.3246	 -0.465540	
4.35786	 -0.495861	
4.39113	 -0.412081	
4.4244	 -0.465537	
4.45766	 -0.496151	
4.49093	 -0.411987	
4.52419	 -0.441638	
4.55746	 -0.473022	
4.59073	 -0.413241	
4.62399	 -0.459211	
4.65726	 -0.488281	
4.69052	 -0.418700	
4.72379	 -0.449121	
4.75706	 -0.449024	
4.79032	 -0.424832	
4.82359	 -0.439897	
4.85685	 -0.463366	
4.89012	 -0.399723	
4.92339	 -0.442505	
4.95665	 -0.442505	
4.98992	 -0.430821	
5.02319	 -0.448250	
5.05645	 -0.431207	
5.08972	 -0.432798	
5.12298	 -0.477370	
5.15625	 -0.441687	
5.18952	 -0.421984	
5.22278	 -0.452598	
5.25605	 -0.457764	
5.28931	 -0.457764	
5.32258	 -0.529182	
5.35585	 -0.463465	
5.38911	 -0.457764	
5.42238	 -0.442505	
5.45565	 -0.462252	
5.48891	 -0.525274	
5.52218	 -0.473022	
5.55544	 -0.457764	
5.58871	 -0.475976	
5.62198	 -0.488281	
5.65524	 -0.488281	
5.68851	 -0.484469	
5.72177	 -0.545601	
5.75504	 -0.442505	
5.78831	 -0.500018	
5.82157	 -0.476447	
5.85484	 -0.439177	
5.8881	 -0.457764	
5.92137	 -0.457764	
5.95464	 -0.378431	
5.9879	 -0.409046	
6.02117	 -0.445350	
6.05444	 -0.427246	
6.0877	 -0.381470	
6.12097	 -0.442505	
6.15423	 -0.409529	
6.1875	 -0.407264	
6.22077	 -0.442505	
6.25403	 -0.409819	
6.2873	 -0.368282	
6.32056	 -0.427246	
6.35383	 -0.411987	
6.3871	 -0.366211	
6.42036	 -0.459448	
6.45363	 -0.396729	
6.4869	 -0.381470	
6.52016	 -0.473022	
6.55343	 -0.425948	
6.58669	 -0.456562	
6.61996	 -0.414196	
6.65323	 -0.425230	
6.68649	 -0.427246	
6.71976	 -0.473022	
6.75302	 -0.440351	
6.78629	 -0.413230	
6.81956	 -0.458813	
6.85282	 -0.473450	
6.88609	 -0.428570	
6.91935	 -0.533823	
6.95262	 -0.442505	
6.98589	 -0.427369	
7.01915	 -0.518799	
7.05242	 -0.472565	
7.08569	 -0.457515	
7.11895	 -0.503540	
7.15222	 -0.442505	
7.18548	 -0.457225	
7.21875	 -0.517527	
7.25202	 -0.442505	
7.28528	 -0.457764	
7.31855	 -0.456838	
7.35181	 -0.441482	
7.38508	 -0.473022	
7.41835	 -0.471807	
7.45161	 -0.442505	
7.48488	 -0.442505	
7.51815	 -0.456258	
7.55141	 -0.415193	
7.58468	 -0.467924	
7.61794	 -0.454172	
7.65121	 -0.440612	
7.68448	 -0.451796	
7.71774	 -0.442505	
7.75101	 -0.414170	
7.78427	 -0.475302	
7.81754	 -0.457764	
7.85081	 -0.414460	
7.88407	 -0.460333	
7.91734	 -0.452431	
7.9506	 -0.411987	
7.98387	 -0.510220	
8.01714	 -0.500584	
8.0504	 -0.485228	
8.08367	 -0.500390	
8.11694	 -0.494774	
8.1502	 -0.518799	
8.18347	 -0.522238	
8.21673	 -0.510613	
8.25	 -0.484648	
8.28327	 -0.549316	
8.31653	 -0.484455	
8.3498	 -0.473022	
8.38306	 -0.545297	
8.41633	 -0.522915	
8.4496	 -0.499327	
8.48286	 -0.501211	
8.51613	 -0.538464	
8.5494	 -0.474772	
8.58266	 -0.508140	
8.61593	 -0.503540	
8.64919	 -0.477816	
8.68246	 -0.518799	
8.71573	 -0.523785	
8.74899	 -0.467930	
8.78226	 -0.564575	
8.81552	 -0.528781	
8.84879	 -0.473022	
8.88206	 -0.528588	
8.91532	 -0.493848	
8.94859	 -0.469091	
8.98185	 -0.553055	
9.01512	 -0.503540	
9.04839	 -0.467069	
9.08165	 -0.530899	
9.11492	 -0.506722	
9.14819	 -0.494525	
9.18145	 -0.509880	
9.21472	 -0.479459	
9.24798	 -0.425055	
9.28125	 -0.549316	
9.31452	 -0.471218	
9.34778	 -0.456152	
9.38105	 -0.527137	
9.41431	 -0.464781	
9.44758	 -0.442505	
9.48085	 -0.526009	
9.51411	 -0.441860	
9.54738	 -0.435101	
9.58065	 -0.442505	
9.61391	 -0.419584	
9.64718	 -0.427246	
9.68044	 -0.473022	
9.71371	 -0.404616	
9.74698	 -0.381470	
9.78024	 -0.427246	
9.81351	 -0.404906	
9.84677	 -0.389744	
9.88004	 -0.486799	
9.91331	 -0.381470	
9.94657	 -0.381470	
9.97984	 -0.435907	
10.0131	 -0.396729	
10.0464	 -0.396729	
10.0796	 -0.420938	
10.1129	 -0.381470	
10.1462	 -0.405873	
10.1794	 -0.418005	
10.2127	 -0.366211	
10.246	 -0.442505	
10.2792	 -0.436777	
10.3125	 -0.431242	
10.3458	 -0.463298	
10.379	 -0.478460	
10.4123	 -0.453187	
10.4456	 -0.411987	
10.4788	 -0.457764	
10.5121	 -0.467866	
10.5454	 -0.477977	
10.5786	 -0.473022	
10.6119	 -0.457764	
10.6452	 -0.431910	
10.6784	 -0.549316	
10.7117	 -0.410141	
10.745	 -0.440369	
10.7782	 -0.455338	
10.8115	 -0.438324	
10.8448	 -0.465932	
10.878	 -0.484294	
10.9113	 -0.453873	
10.9446	 -0.453887	
10.9778	 -0.507238	
11.0111	 -0.484680	
11.0444	 -0.461268	
11.0776	 -0.484874	
11.1109	 -0.415298	
11.1442	 -0.457764	
11.1774	 -0.439388	
11.2107	 -0.421205	
11.244	 -0.457764	
11.2772	 -0.420469	
11.3105	 -0.411987	
11.3437	 -0.470389	
11.377	 -0.470485	
11.4103	 -0.455323	
11.4435	 -0.470679	
11.4768	 -0.442505	
11.5101	 -0.414138	
11.5433	 -0.457764	
11.5766	 -0.473022	
11.6099	 -0.427246	
11.6431	 -0.456000	
11.6764	 -0.440838	
11.7097	 -0.430387	
11.7429	 -0.457764	
11.7762	 -0.500786	
11.8095	 -0.442505	
11.8427	 -0.442505	
11.876	 -0.518799	
11.9093	 -0.488281	
11.9425	 -0.500859	
11.9758	 -0.534855	
12.0091	 -0.474423	
12.0423	 -0.518195	
12.0756	 -0.532537	
12.1089	 -0.548086	
12.1421	 -0.549003	
12.1754	 -0.503757	
12.2087	 -0.518679	
12.2419	 -0.518799	
12.2752	 -0.549390	
12.3085	 -0.533888	
12.3417	 -0.503540	
12.375	 -0.534421	
12.4083	 -0.488281	
12.4415	 -0.457764	
12.4748	 -0.488281	
12.5081	 -0.427246	
12.5413	 -0.473022	
12.5746	 -0.458707	
12.6079	 -0.399849	
12.6411	 -0.458900	
12.6744	 -0.458997	
12.7077	 -0.399389	
12.7409	 -0.442505	
